<svg xmlns="http://www.w3.org/2000/svg" viewBox="0 0 88 41.7"><title>approved</title><line x1="5" y1="36" x2="83" y2="36" fill="none" stroke="#45413c" stroke-linecap="round" stroke-linejoin="round"/><line x1="0.5" y1="36" x2="3" y2="36" fill="none" stroke="#45413c" stroke-linecap="round" stroke-linejoin="round"/><line x1="85" y1="36" x2="87.5" y2="36" fill="none" stroke="#45413c" stroke-linecap="round" stroke-linejoin="round"/><path d="M65.2,60.6a1.1,1.1,0,0,1-1.1,1.1h-28A1.1,1.1,0,0,1,35,60.6V22.1A1.1,1.1,0,0,1,36.1,21H59.2a1.1,1.1,0,0,1,.8.3l4.9,4.9a1.1,1.1,0,0,1,.3.8V60.6Z" transform="translate(0 -20.5)" fill="#f0f0f0"/><path d="M35,25.4a1.1,1.1,0,0,1,1.1-1.1H63l-3-3a1.1,1.1,0,0,0-.8-0.3H36.1A1.1,1.1,0,0,0,35,22.1v3.3Z" transform="translate(0 -20.5)" fill="#fff"/><path d="M65.2,60.6a1.1,1.1,0,0,1-1.1,1.1h-28A1.1,1.1,0,0,1,35,60.6V22.1A1.1,1.1,0,0,1,36.1,21H59.2a1.1,1.1,0,0,1,.8.3l4.9,4.9a1.1,1.1,0,0,1,.3.8V60.6Z" transform="translate(0 -20.5)" fill="none" stroke="#45413c" stroke-linejoin="round"/><circle cx="57" cy="31.3" r="5.5" fill="none" stroke="#46b000" stroke-miterlimit="10"/><polyline points="54.3 31.3 56.5 33.5 60 29.4" fill="none" stroke="#46b000" stroke-linecap="round" stroke-linejoin="round"/><line x1="42.2" y1="13.7" x2="59.2" y2="13.7" fill="none" stroke="#45413c" stroke-linecap="round" stroke-linejoin="round"/><line x1="43.7" y1="10.4" x2="51" y2="10.4" fill="none" stroke="#45413c" stroke-linecap="round" stroke-linejoin="round"/><line x1="42.2" y1="17" x2="59.2" y2="17" fill="none" stroke="#45413c" stroke-linecap="round" stroke-linejoin="round"/><line x1="42.2" y1="20.3" x2="59.2" y2="20.3" fill="none" stroke="#45413c" stroke-linecap="round" stroke-linejoin="round"/><path d="M59.7,25.5a1,1,0,0,0,1,1h4.4l-0.2-.3L60,21.3l-0.3-.2v4.4Z" transform="translate(0 -20.5)" fill="#fff" stroke="#45413c" stroke-linejoin="round"/><path d="M19.7,50.7H45.8a4,4,0,0,1,4,4v2.7a1,1,0,0,1-1,1H16.7a1,1,0,0,1-1-1V54.7A4,4,0,0,1,19.7,50.7Z" transform="translate(0 -20.5)" fill="#f0f0f0"/><path d="M37.9,36.4h-11c0.5,1.1,2,5,2,14.4h7.7c0-9.4,1.5-13.3,2-14.4H37.9Z" transform="translate(0 -20.5)" fill="#f0f0f0"/><path d="M47.3,61a1,1,0,0,1-.9.7H19.1a1,1,0,0,1-.9-0.7l-0.9-2.6H48.1Z" transform="translate(0 -20.5)" fill="#656769"/><path d="M19.7,50.7H45.8a4,4,0,0,1,4,4v2.7a1,1,0,0,1-1,1H16.7a1,1,0,0,1-1-1V54.7A4,4,0,0,1,19.7,50.7Z" transform="translate(0 -20.5)" fill="none" stroke="#45413c" stroke-linejoin="round"/><path d="M37.9,36.4h-11c0.5,1.1,2,5,2,14.4h7.7c0-9.4,1.5-13.3,2-14.4H37.9Z" transform="translate(0 -20.5)" fill="none" stroke="#45413c" stroke-linejoin="round"/><path d="M47.3,61a1,1,0,0,1-.9.7H19.1a1,1,0,0,1-.9-0.7l-0.9-2.6H48.1Z" transform="translate(0 -20.5)" fill="none" stroke="#45413c" stroke-linejoin="round"/><line x1="28.8" y1="26.9" x2="36.6" y2="26.9" fill="none" stroke="#45413c" stroke-linejoin="round"/><rect x="25.6" y="7.1" width="14.3" height="8.8" rx="2" ry="2" fill="#f0f0f0"/><rect x="25.6" y="7.1" width="14.3" height="8.8" rx="2" ry="2" fill="none" stroke="#45413c" stroke-linejoin="round"/></svg>