<svg xmlns="http://www.w3.org/2000/svg" viewBox="0 0 569.8 531.7"><title>calculate</title><polygon points="344.9 142.1 284.9 46.9 224.9 142.1 344.9 142.1" fill="#ffdc64"/><polygon points="398.9 265.8 344.9 180.1 224.9 180.1 170.9 265.8 398.9 265.8" fill="#c7cfe2"/><polygon points="62.9 437 9 522.7 560.8 522.7 506.8 437 62.9 437" fill="#f1f4fb"/><polygon points="62.9 437 506.8 437 452.8 351.4 116.9 351.4 62.9 437" fill="#e4eaf6"/><polygon points="116.9 351.4 452.8 351.4 398.9 265.8 170.9 265.8 116.9 351.4" fill="#d7deed"/><path d="M352.4,175.4a8.9,8.9,0,0,0-7.5-4.2h-120a8.9,8.9,0,0,0-7.5,4.2L1.4,518a8.9,8.9,0,0,0,7.5,13.7h552a8.9,8.9,0,0,0,7.5-13.7ZM121.9,360.3h326l42.8,67.9H79.1Zm53.9-85.5H394l42.7,67.8H133.1Zm54-85.6H340l42.7,67.7H187.1ZM25.2,513.8L67.9,446h434l42.7,67.8H25.2Z"/><path d="M224.9,151h120a8.9,8.9,0,0,0,7.5-13.7l-3.4-5.4H560.9a8.9,8.9,0,0,0,0-17.8h-223l-45.4-72a8.9,8.9,0,0,0-15.1,0l-60,95.1A8.9,8.9,0,0,0,224.9,151Zm60-87.3,43.8,69.5H241.1Z"/><path d="M446.7,55.9h95.1a8.9,8.9,0,1,0,0-17.8H446.7A8.9,8.9,0,1,0,446.7,55.9Z"/><path d="M446.7,17.8h57.1a8.9,8.9,0,1,0,0-17.8H446.7A8.9,8.9,0,1,0,446.7,17.8Z"/><path d="M446.7,93.9h19a8.9,8.9,0,0,0,0-17.8h-19A8.9,8.9,0,0,0,446.7,93.9Z"/><path d="M503.8,76.1a8.9,8.9,0,0,0,0,17.8h19a8.9,8.9,0,0,0,0-17.8h-19Z"/><path d="M425.9,60.3h-10V50.2h8.6a7.2,7.2,0,1,0,0-14.4h-8.6V11.4a7.2,7.2,0,1,0-14.4,0V35.9H372.7L346.8,5.7A7.2,7.2,0,0,0,335.3,10V34.5h-7.2a7.2,7.2,0,1,0,0,14.4h7.2V60.4h-7.2a7.2,7.2,0,1,0,0,14.4h7.2V89.2a7.2,7.2,0,1,0,14.4,0h0V74.7h37.4L404.4,92l5.8,2.9h2.9a7.2,7.2,0,0,0,4.3-7.2V73.3H426A7.2,7.2,0,0,0,425.9,60.3Zm-23-10.1V60.3h-8.6l-8.6-10.1h17.2ZM351.1,30.1l5.8,5.8h-7.2V30.1h1.4Zm0,30.2V50.2h17.3l7.2,10.1H351.1Z"/></svg>