<svg xmlns="http://www.w3.org/2000/svg" viewBox="0 0 511.9 289.7"><title>give-loan</title><path d="M486.8,281.7H25.1A17.1,17.1,0,0,1,8,264.6H8V25.2A17.1,17.1,0,0,1,25.1,8.1H486.8a17.1,17.1,0,0,1,17.1,17.1V264.6A17.1,17.1,0,0,1,486.8,281.7Z" fill="#f1f4fb"/><path d="M486.8,0H25.1A25.1,25.1,0,0,0,0,25.1H0V264.6a25.1,25.1,0,0,0,25.1,25.1H486.8a25.1,25.1,0,0,0,25.1-25.1V25.2A25.1,25.1,0,0,0,486.9,0h-0.1Zm9.1,264.6a9.1,9.1,0,0,1-9.1,9.1H25.1a9.1,9.1,0,0,1-9.1-9.1h0V25.2a9.1,9.1,0,0,1,9.1-9.1H486.8a9.1,9.1,0,0,1,9.1,9.1V264.6h0Z"/><path d="M141.3,103.7h-9.6V93.6h9.6a7.2,7.2,0,0,0,0-14.3h-9.6V53.5a7.2,7.2,0,0,0-14.3,0V79.3H87.8L61.5,48.9A7.1,7.1,0,0,0,49,53.6V79.4H41.3a7.1,7.1,0,0,0,0,14.3H49v10.1H41.3a7.1,7.1,0,0,0,0,14.3H49v14.8a7.2,7.2,0,0,0,14.3,0V118h39.1l16.8,19.5a7.1,7.1,0,0,0,12.5-4.7V118h9.6A7.2,7.2,0,0,0,141.3,103.7ZM117.4,93.6v10.1h-8.6l-8.6-10.1h17.2ZM63.2,72.7l5.7,6.6H63.2V72.7Zm0,31V93.6H81.3L90,103.7H63.2Z"/><path d="M170.4,67.4H307.2a8,8,0,0,0,0-16H170.4A8,8,0,0,0,170.4,67.4Z"/><path d="M444.1,67.4h17.1a8,8,0,0,0,0-16H444.1A8,8,0,0,0,444.1,67.4Z"/><path d="M392.8,67.4h17.1a8,8,0,0,0,0-16H392.8A8,8,0,0,0,392.8,67.4Z"/><path d="M264,127.8a8,8,0,0,0-8-8H170.4a8,8,0,0,0,0,16h85.5a8,8,0,0,0,8.1-7.9h0Z"/><path d="M324.3,85.5H170.4a8,8,0,0,0,0,16H324.3A8,8,0,0,0,324.3,85.5Z"/><path d="M375.7,135.8h85.5a8,8,0,0,0,0-16H375.7A8,8,0,0,0,375.7,135.8Z"/><path d="M427,101.6h34.2a8,8,0,0,0,0-16H427A8,8,0,0,0,427,101.6Z"/><path d="M93.5,230.9H59.3a8,8,0,0,0,0,16H93.5A8,8,0,1,0,93.5,230.9Z"/><path d="M298.7,230.9H230.3a8,8,0,0,0,0,16h68.4A8,8,0,0,0,298.7,230.9Z"/><path d="M144.8,230.9H127.7a8,8,0,0,0,0,16h17.1A8,8,0,0,0,144.8,230.9Z"/><path d="M196.1,230.9H179a8,8,0,0,0,0,16h17.1A8,8,0,0,0,196.1,230.9Z"/><path d="M456,181.5l-45.7,38.1-20.5-20.5a8,8,0,0,0-11.3,0L358,219.6v-32a8,8,0,1,0-16,0v51.3a8,8,0,0,0,13.7,5.7l28.5-28.5,20,20a8,8,0,0,0,10.8.5l51.3-42.8A8,8,0,0,0,456,181.5Z"/></svg>