<svg xmlns="http://www.w3.org/2000/svg" viewBox="0 0 626.5 459"><title>loan</title><path d="M414.4,234.6h-8v-8h6.9a5.8,5.8,0,0,0,0-11.5h-6.9V195.5a5.8,5.8,0,1,0-11.5,0V215h-23l-20.7-24.1a5.7,5.7,0,0,0-9.2,3.4v19.5h-5.8a5.8,5.8,0,0,0,0,11.5h5.7v9.2h-5.7a5.7,5.7,0,0,0,0,11.5h5.7v11.5a5.8,5.8,0,0,0,11.5,0h0V246.1h29.9l13.9,13.7,4.6,2.3h2.3a5.7,5.7,0,0,0,3.4-5.7V244.9h6.9A5.7,5.7,0,0,0,414.4,234.6Zm-18.4-8v8h-6.9l-6.9-8H396Zm-41.4-16.1,4.6,4.6h-5.7v-4.6h1.1Zm0,24.1v-8h13.8l5.7,8H354.6Z"/><path d="M261,313.2H83.1a20.9,20.9,0,0,1-20.9-20.9h0V166.7a20.9,20.9,0,0,1,20.9-20.9H261a20.9,20.9,0,0,1,20.9,20.9V292.3A20.9,20.9,0,0,1,261,313.2h0Z" fill="#6e4848"/><path d="M281.9,260.9H240A20.9,20.9,0,0,1,219.1,240V219A20.9,20.9,0,0,1,240,198.1h41.9A20.9,20.9,0,0,1,302.8,219v20.9a20.9,20.9,0,0,1-20.8,21h-0.1Z" fill="#785353"/><path d="M41.2,9.8H585.3a31.4,31.4,0,0,1,31.4,31.4h0V93.5H9.9V41.2A31.4,31.4,0,0,1,41.2,9.8Z" fill="#e4eaf8"/><path d="M51.7,61.4h0.1A9.9,9.9,0,1,0,51.7,61.4Z"/><path d="M114.5,61.4h0.1A9.9,9.9,0,1,0,114.5,61.4Z"/><path d="M83.1,61.4h0.1A9.9,9.9,0,1,0,83.1,61.4Z"/><path d="M156.4,61.4H575a9.8,9.8,0,0,0,0-19.6H156.4A9.8,9.8,0,0,0,156.4,61.4Z"/><path d="M585.3,0H41.2A41.2,41.2,0,0,0,0,41.2V417.8A41.2,41.2,0,0,0,41.2,459H585.3a41.2,41.2,0,0,0,41.2-41.2h0V41.2A41.2,41.2,0,0,0,585.3,0h0ZM41.2,19.6H585.3a21.6,21.6,0,0,1,21.6,21.6V83.7H19.7V41.2A21.6,21.6,0,0,1,41.2,19.6ZM585.3,439.4H41.2a21.6,21.6,0,0,1-21.5-21.6V103.3H606.9V417.8a21.6,21.6,0,0,1-21.6,21.6h0Z"/><path d="M312.6,240V219a30.8,30.8,0,0,0-20.9-29.1V166.7A30.8,30.8,0,0,0,261,136H83.1a30.8,30.8,0,0,0-30.7,30.7V292.3A30.8,30.8,0,0,0,83.1,323H261a30.8,30.8,0,0,0,30.7-30.7V269.1A30.8,30.8,0,0,0,312.6,240ZM293,240a11.1,11.1,0,0,1-11.1,11.1H240A11.1,11.1,0,0,1,228.9,240h0V219A11.1,11.1,0,0,1,240,207.9h41.9A11.1,11.1,0,0,1,293,219h0v20.9h0Zm-32,63.4H83.1A11.1,11.1,0,0,1,72,292.3V166.7a11.1,11.1,0,0,1,11.1-11.1H261a11.1,11.1,0,0,1,11.1,11.1h0v21.6h-32A30.8,30.8,0,0,0,209.4,219v20.9a30.8,30.8,0,0,0,30.7,30.7h32v21.6a11.1,11.1,0,0,1-11,11.2H261Z"/><path d="M250.5,219.7h-0.1A9.9,9.9,0,1,0,250.5,219.7Z"/><path d="M449.3,197.5h73.2a9.8,9.8,0,0,0,0-19.6H449.3A9.8,9.8,0,0,0,449.3,197.5Z"/><path d="M480,271.3a9.8,9.8,0,0,0-9.8-9.8H449.3a9.8,9.8,0,0,0,0,19.6h20.9A9.8,9.8,0,0,0,480,271.3Z"/><path d="M542.8,271.3a9.8,9.8,0,0,0-9.8-9.8H512.1a9.8,9.8,0,0,0,0,19.6H533A9.8,9.8,0,0,0,542.8,271.3Z"/><path d="M564.4,219.7H449.3a9.8,9.8,0,0,0,0,19.6H564.4A9.8,9.8,0,0,0,564.4,219.7Z"/><path d="M83.1,345.2H62.2a9.8,9.8,0,1,0,0,19.6H83.1A9.8,9.8,0,0,0,83.1,345.2Z"/><path d="M83.1,387.1H62.2a9.8,9.8,0,1,0,0,19.6H83.1A9.8,9.8,0,0,0,83.1,387.1Z"/><path d="M271.4,345.2H124.9a9.8,9.8,0,0,0,0,19.6H271.4a9.8,9.8,0,0,0,0-19.6h0Z"/><path d="M271.4,387.1H124.9a9.8,9.8,0,0,0,0,19.6H271.4a9.8,9.8,0,1,0,0-19.6h0Z"/><path d="M438.8,345.2H376.1a9.8,9.8,0,0,0,0,19.6h62.8A9.8,9.8,0,1,0,438.8,345.2Z"/><path d="M438.8,387.1H376.1a9.8,9.8,0,1,0,0,19.6h62.8A9.8,9.8,0,1,0,438.8,387.1Z"/><path d="M501.6,345.2H480.7a9.8,9.8,0,0,0,0,19.6h20.9A9.8,9.8,0,0,0,501.6,345.2Z"/><path d="M501.6,387.1H480.7a9.8,9.8,0,1,0,0,19.6h20.9a9.8,9.8,0,1,0,0-19.6h0Z"/><path d="M564.4,345.2H543.5a9.8,9.8,0,1,0,0,19.6h20.9a9.8,9.8,0,0,0,0-19.6h0Z"/><path d="M564.4,387.1H543.5a9.8,9.8,0,1,0,0,19.6h20.9a9.8,9.8,0,1,0,0-19.6h0Z"/><path d="M334.2,345.2H313.3a9.8,9.8,0,1,0,0,19.6h20.9A9.8,9.8,0,0,0,334.2,345.2Z"/><path d="M334.2,387.1H313.3a9.8,9.8,0,0,0,0,19.6h20.9a9.8,9.8,0,1,0,0-19.6h0Z"/></svg>