<svg xmlns="http://www.w3.org/2000/svg" viewBox="0 0 83.9 13.4"><title>logo</title><path d="M21.3,4.5a3.6,3.6,0,0,1,.9,2.7,3.5,3.5,0,0,1-.8,2.4,2.8,2.8,0,0,1-2.2.9H18.3l-0.8-.3V13H16.2V5A1.1,1.1,0,0,1,17,4a5.4,5.4,0,0,1,2-.3A3.2,3.2,0,0,1,21.3,4.5Zm-1,4.3a2.5,2.5,0,0,0,.5-1.6,3.1,3.1,0,0,0-.4-1.7A1.6,1.6,0,0,0,19,4.8H18a0.5,0.5,0,0,0-.4.4V8.9a2.7,2.7,0,0,0,1.4.4A1.7,1.7,0,0,0,20.3,8.8Z" fill="#a3c054"/><path d="M28.4,4.1a1.8,1.8,0,0,1,.7,1.7V8.9a1.2,1.2,0,0,1-.8,1.2,5.7,5.7,0,0,1-2.2.3,3.5,3.5,0,0,1-1.9-.5,1.8,1.8,0,0,1-.8-1.6A2,2,0,0,1,24,6.7a2.6,2.6,0,0,1,1.7-.5,3.7,3.7,0,0,1,2,.5V6.1q0-1.3-1.6-1.3L25,5l-0.9.5V4.2l1.1-.4,1.4-.2A3.1,3.1,0,0,1,28.4,4.1Zm-1,5.2a0.5,0.5,0,0,0,.3-0.5V7.6a3.6,3.6,0,0,0-1.5-.3,2,2,0,0,0-1.1.3,0.9,0.9,0,0,0-.4.8,0.9,0.9,0,0,0,.4.8,1.9,1.9,0,0,0,1,.3h1.2V9.3Z" fill="#a3c054"/><path d="M36.7,3.8L34,10.7q-0.8,2.1-2.2,2.1l-0.9-.2V11.5h0.6a1,1,0,0,0,.8-0.3,2.8,2.8,0,0,0,.5-1L30.2,3.8h1.5l1.8,4.9,1.8-4.9h1.4Z" fill="#a3c054"/><path d="M38.1,9.6A3.2,3.2,0,0,1,37.2,7a3.4,3.4,0,0,1,.9-2.6,3.3,3.3,0,0,1,2.3-.8,5.2,5.2,0,0,1,2,.4V5.2a4.7,4.7,0,0,0-1.8-.4,2.1,2.1,0,0,0-1.5.5,2.3,2.3,0,0,0-.5,1.6,2.5,2.5,0,0,0,.5,1.7,2.1,2.1,0,0,0,1.6.5,4.1,4.1,0,0,0,1.8-.4V9.9a4.9,4.9,0,0,1-2,.4A3.4,3.4,0,0,1,38.1,9.6Z" fill="#4a585c"/><path d="M44.5,9.6A3.8,3.8,0,0,1,43.7,7q0-3.4,3.1-3.4a3,3,0,0,1,2.4.9A3.7,3.7,0,0,1,50,7a3.7,3.7,0,0,1-.8,2.6A3.5,3.5,0,0,1,44.5,9.6ZM48.6,7a2.8,2.8,0,0,0-.4-1.7,1.6,1.6,0,0,0-1.4-.6,1.5,1.5,0,0,0-1.4.6A2.9,2.9,0,0,0,45,7a2.9,2.9,0,0,0,.4,1.7,1.5,1.5,0,0,0,1.3.6Q48.6,9.3,48.6,7Z" fill="#4a585c"/><path d="M52.9,3.8l1.6-.2a3,3,0,0,1,2,.6A2.2,2.2,0,0,1,57.2,6v4.3H55.9V6.2a1.3,1.3,0,0,0-1.2-1.4H54.4L53,5v5.3H51.5v-6Z" fill="#4a585c"/><path d="M60.6,3.8l1.6-.2a3,3,0,0,1,2,.6A2.2,2.2,0,0,1,64.8,6v4.3H63.5V6.2a1.3,1.3,0,0,0-1.2-1.4H62L60.6,5v5.3H59.1v-6Z" fill="#4a585c"/><path d="M71.7,4.6a4.6,4.6,0,0,1,.7,2.7H67.8a2.2,2.2,0,0,0,.6,1.5,1.9,1.9,0,0,0,1.4.5h1.1l1-.4v1.3a5.8,5.8,0,0,1-2.3.4,3,3,0,0,1-2.3-.9,3.5,3.5,0,0,1-.8-2.5,3.7,3.7,0,0,1,.7-2.7,2.8,2.8,0,0,1,2.2-.9A2.6,2.6,0,0,1,71.7,4.6Zm-3.3.5a2,2,0,0,0-.5,1.2H71a2,2,0,0,0-.5-1.2,1.7,1.7,0,0,0-2.2,0h0.1Z" fill="#4a585c"/><path d="M74.5,9.6A3.2,3.2,0,0,1,73.6,7a3.4,3.4,0,0,1,.9-2.6,3.3,3.3,0,0,1,2.3-.8,5.2,5.2,0,0,1,2,.4V5.2A4.7,4.7,0,0,0,77,4.8a2.1,2.1,0,0,0-1.5.5A2.3,2.3,0,0,0,75,7a2.5,2.5,0,0,0,.5,1.7,2.1,2.1,0,0,0,1.6.5,4.1,4.1,0,0,0,1.8-.4V10a4.9,4.9,0,0,1-2,.4A3.4,3.4,0,0,1,74.5,9.6Z" fill="#4a585c"/><path d="M81.3,10a1.8,1.8,0,0,1-.5-1.4V4.9h-1V3.8h1.1V2h1.4V3.8h1.6V4.9H82.2V8.3a1.1,1.1,0,0,0,.2.7,0.7,0.7,0,0,0,.6.2h0.8v1.2l-1.1.2A2,2,0,0,1,81.3,10Z" fill="#4a585c"/><line x1="2.6" y1="1.4" x2="1.3" y2="8.8" fill="none" stroke="#a3c054" stroke-miterlimit="10" stroke-width="0.35"/><line x1="2.6" y1="1.6" x2="6.6" y2="12.4" fill="none" stroke="#a3c054" stroke-miterlimit="10" stroke-width="0.35"/><polyline points="1.2 8.9 11 3.6 12.9 10.8" fill="none" stroke="#a3c054" stroke-miterlimit="10" stroke-width="0.35"/><polyline points="2.7 1.3 11.9 7.2 6.8 12.4" fill="none" stroke="#dbae50" stroke-miterlimit="10" stroke-width="0.35"/><line x1="10.9" y1="3.5" x2="2.8" y2="1.1" fill="none" stroke="#b3b3b3" stroke-miterlimit="10" stroke-width="0.35"/><line x1="12.9" y1="11" x2="1.2" y2="9.1" fill="none" stroke="#b3b3b3" stroke-miterlimit="10" stroke-width="0.35"/><line x1="11.6" y1="7.1" x2="1.9" y2="8.8" fill="none" stroke="#dbae50" stroke-miterlimit="10" stroke-width="0.35"/><circle cx="2.6" cy="1.2" r="1.2" fill="#dbae50"/><circle cx="1.2" cy="8.5" r="1.2" fill="#a3c054"/><circle cx="6.8" cy="12.2" r="1.2" fill="#dbae50"/><circle cx="13.1" cy="10.5" r="1" fill="#a3c054"/><circle cx="11.7" cy="6.9" r="0.8" fill="#dbae50"/><circle cx="10.9" cy="3.3" r="0.8" fill="#a3c054"/></svg>