<?xml version="1.0" encoding="utf-8"?>
<!-- Generator: Adobe Illustrator 19.2.1, SVG Export Plug-In . SVG Version: 6.00 Build 0)  -->
<svg version="1.1" id="Layer_1" xmlns="http://www.w3.org/2000/svg" xmlns:xlink="http://www.w3.org/1999/xlink" x="0px" y="0px"
	 viewBox="0 0 512.1 512" style="enable-background:new 0 0 512.1 512;" xml:space="preserve">
<style type="text/css">
	.st0{fill:#D7DEED;}
	.st1{fill:#846A51;}
	.st2{fill:#A88660;}
	.st3{fill:#E4EAF6;}
	.st4{fill:#707487;}
	.st5{fill:#65687A;}
	.st6{fill:#FFDC64;}
	.st7{fill:#FFF082;}
	.st8{opacity:0.29;enable-background:new    ;}
</style>
<title>management</title>
<g>
	<path class="st0" d="M342,394.5l-68.9-18.8h-171l-68.8,18.8c-14.9,4.1-25.2,17.6-25.2,33v59.4c0,9.4,7.7,17.1,17.1,17.1h324.9
		c9.4,0,17.1-7.7,17.1-17.1v-59.4C367.2,412.1,356.9,398.6,342,394.5z"/>
	<rect x="127.8" y="315.9" class="st1" width="119.7" height="85.5"/>
	<path class="st2" d="M281.7,221.8h-3.4l3-18.5c8.3-51.7-26.9-100.3-78.6-108.6s-100.3,26.9-108.6,78.6c-1.6,10-1.6,20.1,0,30.1
		l3,18.5h-3.4c-9.4,0-17.1,7.7-17.1,17.1l0,0V256c0,9.4,7.7,17.1,17.1,17.1l0,0h11.6l3.4,21.5c1.3,8.2,5.5,15.6,11.8,20.9l34.3,28.6
		c4.6,3.8,10.4,5.9,16.4,5.9h32.7c6,0,11.8-2.1,16.4-5.9l34.4-28.6c6.4-5.3,10.6-12.7,11.9-20.9l3.4-21.5h11.7
		c9.4,0,17.1-7.7,17.1-17.1v-17.1C298.8,229.5,291.1,221.8,281.7,221.8z"/>
	<path class="st3" d="M389.7,8.7c-47.1,5.2-85.3,43.5-90.3,90.6c-4.6,41.7,16.5,82,53.5,101.8l-11.4,46.4
		c42.8-8.6,59.9-34.2,59.9-34.2c56.7-0.4,102.3-46.6,102-103.2S456.8,7.7,400.1,8.1C396.6,8.1,393.2,8.3,389.7,8.7z"/>
	<polygon class="st4" points="176.9,435.6 170.5,504 204.7,504 198.3,435.6 	"/>
	<path class="st5" d="M196.2,435.6h-17.1c-4.7,0-8.6-3.9-8.6-8.6v-25.6h34.2v25.7C204.6,431.8,200.9,435.5,196.2,435.6z"/>
	<path class="st3" d="M187.6,401.4l-61.2-45.9c-3.8-2.8-9.2-2-12,1.8c-0.1,0.1-0.1,0.2-0.2,0.3l-12.1,18.1l37.5,52.5
		c2.8,3.8,8.2,4.7,12,1.9c0.1-0.1,0.2-0.1,0.3-0.2L187.6,401.4z"/>
	<path class="st3" d="M187.6,401.4l61.2-45.9c3.8-2.8,9.2-2,12,1.8c0.1,0.1,0.1,0.2,0.2,0.3l12.1,18.1l-37.5,52.5
		c-2.8,3.8-8.2,4.7-12,1.9c-0.1-0.1-0.2-0.1-0.3-0.2L187.6,401.4z"/>
	<circle class="st6" cx="401.4" cy="110.7" r="68.4"/>
	<circle class="st7" cx="401.4" cy="110.7" r="34.2"/>
	<path class="st3" d="M18.5,403c-6.6,6.4-10.4,15.3-10.4,24.5v59.4c0,9.4,7.7,17.1,17.1,17.1H68v-47.8c0-7.6-3.4-14.8-9.3-19.7
		L18.5,403z"/>
	<path class="st3" d="M356.8,403c6.6,6.4,10.4,15.3,10.4,24.5v59.4c0,9.4-7.7,17.1-17.1,17.1h-42.8v-47.8c0-7.6,3.4-14.8,9.2-19.7
		L356.8,403z"/>
	<path class="st8" d="M145.1,203.3c-6.8-51.1,21.5-97.9,61.6-107.8c-51.1-10.7-101.2,22-111.9,73c-2.4,11.4-2.7,23.2-0.8,34.8
		l3,18.5h-3.4c-9.4,0-17.1,7.7-17.1,17.1l0,0V256c0,9.4,7.7,17.1,17.1,17.1l0,0h11.6l3.4,21.5c1.3,8.2,5.5,15.6,11.9,20.9l34.3,28.6
		c4.6,3.8,10.4,5.9,16.4,5.9h7.1c-7.9-9.7-15.8-26.2-21.1-55.4L145.1,203.3z"/>
	<path d="M344.1,386.8l-66-18l-10.4-15.6c-2.5-3.8-6.5-6.3-11-7.1h-1.2v-20.8l4.4-3.6c7.9-6.5,13.1-15.7,14.7-25.8l2.4-14.8h4.7
		c13.9,0,25.1-11.2,25.1-25.1v-17.1c0-11.6-8-21.6-19.2-24.4l1.6-9.9c9-56.1-29.1-108.8-85.2-117.8c-56.1-9-108.8,29.1-117.8,85.2
		c-1.7,10.8-1.7,21.8,0,32.6l1.5,9.9c-11.2,2.8-19.2,12.8-19.2,24.4V256c0,13.9,11.2,25.1,25.1,25.1l0,0h4.8l2.4,14.8
		c1.6,10.1,6.8,19.3,14.7,25.8l4.4,3.6v20.5h-1.2c-4.5,0.8-8.5,3.3-11,7.1l-10.4,15.6l-66,18c-18.5,5-31.4,21.8-31.3,41v59.4
		C0,500.8,11.2,512,25.1,512h325c13.9,0,25.1-11.2,25.1-25.1v-59.4C375.2,408.5,362.4,391.8,344.1,386.8z M343.5,403.6l-32.1,26.7
		c-7.7,6.4-12.1,15.9-12.1,25.9V496h-87.5l-6.9-54.9c3.6-2.2,6.1-5.7,7.2-9.8l6.1,4.9c3,2.3,6.6,3.6,10.4,3.6l2.3-0.2
		c4.5-0.6,8.6-3.1,11.2-6.8l34.3-48l63.5,17.3C341.1,402.5,342.3,403,343.5,403.6L343.5,403.6z M187.6,411.7l9.1,7.3v8.1
		c0,0.3-0.2,0.5-0.5,0.5h-17.1c-0.3,0-0.5-0.2-0.5-0.5V419L187.6,411.7z M186.1,443.7h2.9l6.5,52.4h-16L186.1,443.7z M263.3,375.7
		l-34.3,48c-0.1,0.1-0.2,0.2-0.4,0.2h-0.4l-27.5-22.3l52.9-39.7h0.4c0.2,0,0.3,0.1,0.4,0.2L263.3,375.7z M290.7,239v17.1
		c0,5-4.1,9.1-9.1,9.1h-2.2l5.5-34.6C288.4,231.9,290.7,235.2,290.7,239L290.7,239z M93.6,265.1c-5,0-9.1-4.1-9.1-9.1l0,0v-17.1
		c0-3.8,2.3-7.1,5.8-8.5l5.5,34.6h-2.2L93.6,265.1z M102,202c-7.6-47.3,24.6-91.9,71.9-99.5s91.9,24.6,99.5,71.9
		c1.5,9.1,1.5,18.4,0,27.6l-14.7,91.4c-1,6.3-4.2,11.9-9.1,16L215.3,338l0,0c-3.2,2.6-7.2,4.1-11.3,4.1h-32.7
		c-4.1,0-8.1-1.5-11.3-4.1l-34.3-28.6c-4.9-4.1-8.1-9.7-9.1-16L102,202z M149.7,350.3c6.1,5,13.7,7.8,21.6,7.8H204
		c7.9,0,15.5-2.8,21.6-7.8l0,0l13.9-11.6v13.8l-51.8,38.9l-51.9-38.9v-13.8L149.7,350.3z M120.9,362.1c0.1-0.1,0.2-0.2,0.4-0.2h0.4
		l52.9,39.7L147,423.7h-0.4c-0.2,0-0.3-0.1-0.4-0.2l-34.3-48L120.9,362.1z M98.9,385l34.3,48c2.6,3.7,6.7,6.2,11.2,6.8l2.3,0.2
		c3.8,0,7.4-1.3,10.4-3.6l6.1-4.9c1.1,4.1,3.6,7.6,7.2,9.8l-6.9,54.9H75.9v-40c0-10-4.4-19.5-12.1-25.9l-32.1-26.7
		c1.2-0.5,2.4-1,3.6-1.3L98.9,385z M16.1,487v-59.5c0-4.6,1.2-9.2,3.6-13.2l33.9,28.2c4,3.3,6.3,8.3,6.3,13.5v39.8H25.2
		C20.3,495.8,16.2,491.8,16.1,487L16.1,487z M359.2,487c0,5-4.1,9.1-9.1,9.1h-34.7v-39.9c0-5.2,2.3-10.2,6.3-13.5l33.9-28.2
		c2.4,4,3.6,8.6,3.6,13.2v59.4l0,0V487z"/>
	<path d="M401.4,34.2c-42.2,0-76.4,34.2-76.4,76.4c0,42.2,34.2,76.4,76.4,76.4c42.2,0,76.4-34.2,76.4-76.4
		C477.7,68.4,443.6,34.2,401.4,34.2z M401.4,171c-33.4,0-60.4-27-60.4-60.4s27-60.4,60.4-60.4c33.4,0,60.4,27,60.4,60.4
		c0,33.4-27,60.4-60.4,60.5V171z"/>
	<path d="M475.2,28.2c-23.6-21-55-31-86.4-27.5c-51,5.6-91.9,46.7-97.4,97.7c-4.7,42.7,15.7,84.2,52.3,106.6l-9.9,40.6
		c-1,4.3,1.6,8.6,5.9,9.7c0.6,0.2,1.3,0.2,1.9,0.2l1.6-0.2c36.4-7.3,55.6-26.2,62.3-34.1c61-2.2,108.7-53.5,106.5-114.5
		C510.9,76.6,497.6,48.3,475.2,28.2z M401.4,205.2c-2.7,0-5.2,1.3-6.7,3.6c-0.1,0.2-12.3,18.1-42.2,27.6l8.2-33.4
		c0.9-3.6-0.8-7.3-4-9c-34-18.3-53.6-55.4-49.3-93.8c4.7-43.6,39.7-78.7,83.2-83.5c51.9-5.9,98.8,31.4,104.6,83.4
		s-31.4,98.8-83.4,104.6C408.4,205.1,404.9,205.3,401.4,205.2L401.4,205.2z"/>
	<path d="M448.2,118.5h-9.1v-9.1h7.8c3.6,0.4,6.8-2.1,7.3-5.6s-2.1-6.8-5.6-7.3c-0.5-0.1-1.1-0.1-1.6,0h-7.8v-22
		c-0.4-3.6-3.7-6.1-7.3-5.6c-3,0.4-5.3,2.7-5.6,5.6v22h-25.8l-23.3-27.2c-2.9-2.2-6.9-1.6-9.1,1.3c-0.6,0.8-1,1.7-1.2,2.6v22h-6.5
		c-3.6,0.4-6.1,3.7-5.6,7.3c0.4,3,2.7,5.3,5.6,5.6h6.4v10.4h-6.5c-3.6,0.4-6.1,3.7-5.6,7.3c0.4,3,2.7,5.3,5.6,5.6h6.5v12.9
		c-0.4,3.6,2.1,6.8,5.6,7.3c3.6,0.4,6.8-2.1,7.3-5.6c0.1-0.5,0.1-1.1,0-1.6v-12.9h33.6l15.5,15.5l5.2,2.6h2.6
		c2.6-1.1,4.1-3.7,3.9-6.5v-12.9h7.8c3.2-1.6,4.5-5.5,2.9-8.7C450.4,120.1,449.4,119.1,448.2,118.5z M427.5,109.4v9.1h-7.8l-7.8-9.1
		H427.5L427.5,109.4z M380.9,91.3l5.2,5.2h-6.4v-5.2H380.9L380.9,91.3z M380.9,118.5v-9.1h15.5l6.5,9.1H380.9z"/>
</g>
</svg>
