<svg xmlns="http://www.w3.org/2000/svg" viewBox="0 0 88 37.2"><title>payout</title><line x1="5" y1="33.4" x2="83" y2="33.4" fill="none" stroke="#45413c" stroke-linecap="round" stroke-linejoin="round"/><line x1="0.5" y1="33.4" x2="3" y2="33.4" fill="none" stroke="#45413c" stroke-linecap="round" stroke-linejoin="round"/><line x1="85" y1="33.4" x2="87.5" y2="33.4" fill="none" stroke="#45413c" stroke-linecap="round" stroke-linejoin="round"/><path d="M19.9,37V58.7a0.8,0.8,0,0,0,.8.8H65.6a0.8,0.8,0,0,0,.8-0.8h0V37H19.9Z" transform="translate(0 -23.1)" fill="#fcfcfc"/><polygon points="66.4 35.6 66.4 33.6 49.6 23.7 47.3 25.1 65 35.6 66.4 35.6" fill="#d8d8d8"/><polygon points="39 25.1 36.7 23.7 19.9 33.6 19.9 35.6 21.2 35.6 39 25.1" fill="#d8d8d8"/><path d="M41.5,46.8a3.2,3.2,0,0,1,3.2,0l2.5,1.5L66.4,37,44.8,24.3a3.2,3.2,0,0,0-3.2,0L19.9,37,39,48.2Z" transform="translate(0 -23.1)" fill="#d8d8d8"/><path d="M33.6,45H52.7l9.7-5.7V28.2a0.8,0.8,0,0,0-.8-0.8H24.7a0.8,0.8,0,0,0-.8.8V39.3Z" transform="translate(0 -23.1)" fill="#f1f4fb"/><circle cx="33.5" cy="13.1" r="1.6" fill="#8ce16e"/><circle cx="52.8" cy="13.1" r="1.6" fill="#8ce16e"/><ellipse cx="43.1" cy="13.1" rx="4.8" ry="5.6" fill="#d5dced"/><path d="M66.8,36.3h0l-3.6-2.1v-6a1.6,1.6,0,0,0-1.6-1.6H50.2l-5-3a4,4,0,0,0-4,0l-5,3H24.7a1.6,1.6,0,0,0-1.6,1.6h0v6l-3.6,2.1h0a0.8,0.8,0,0,0-.4.6V58.7a1.6,1.6,0,0,0,1.6,1.6H65.6a1.6,1.6,0,0,0,1.6-1.6V37A0.8,0.8,0,0,0,66.8,36.3ZM37.6,48.2l-17,10V38.3Zm9.7-12c0,2.7-1.8,4.9-4.1,4.9s-4.1-2.2-4.1-4.9,1.8-4.9,4.1-4.9,4,2.2,4,4.9h0.1Zm-0.5-4.9h8.6a4,4,0,0,0,3.1,3.1v3.5A4,4,0,0,0,55.4,41H46.7a7,7,0,0,0,0-9.7h0.1Zm-9.2,4.9a6.8,6.8,0,0,0,2,4.9H31A4,4,0,0,0,27.9,38V34.5A4,4,0,0,0,31,31.3h8.6A6.8,6.8,0,0,0,37.6,36.2Zm17.9,6.4-2.9,1.7H33.8l-2.9-1.7H55.5ZM45.1,46.1l-0.8-.4H50l-2.7,1.6ZM39,47.4l-2.7-1.6h5.6l-0.8.4Zm2.9,0.1a2.5,2.5,0,0,1,2.5,0L63.6,58.7h-41ZM65.7,58.2l-17-10,16.9-9.9V58.2h0.1ZM64.9,37l-1.8,1V36Zm-23-12a2.5,2.5,0,0,1,2.5,0l2.8,1.7H39.1ZM24.7,28.1h37V38.9l-4.9,2.9a2.5,2.5,0,0,1,2.5-2.4,0.8,0.8,0,0,0,.8-0.8V33.8a0.8,0.8,0,0,0-.8-0.8,2.5,2.5,0,0,1-2.5-2.5,0.8,0.8,0,0,0-.8-0.8H30.3a0.8,0.8,0,0,0-.8.8A2.5,2.5,0,0,1,27.1,33a0.8,0.8,0,0,0-.8.8v4.8a0.8,0.8,0,0,0,.8.8,2.5,2.5,0,0,1,2.5,2.4l-4.9-2.9V28.2h0ZM23.1,38l-1.8-1,1.8-1v2Z" transform="translate(0 -23.1)"/><path d="M27.1,31.3a0.8,0.8,0,1,0-.8-0.8h0A0.8,0.8,0,0,0,27.1,31.3Z" transform="translate(0 -23.1)"/><path d="M59.2,31.3a0.8,0.8,0,1,0-.8-0.8h0A0.8,0.8,0,0,0,59.2,31.3Z" transform="translate(0 -23.1)"/><path d="M33.5,38.6a2.4,2.4,0,1,0-2.4-2.4,2.4,2.4,0,0,0,2.4,2.4h0Zm0-3.2a0.6,0.6,0,1,1-.1-0.1h0.1Z" transform="translate(0 -23.1)"/><path d="M52.8,38.6a2.4,2.4,0,1,0-2.4-2.4,2.4,2.4,0,0,0,2.4,2.4h0Zm0-3.2a0.6,0.6,0,1,1-.1-0.1h0.1Z" transform="translate(0 -23.1)"/><path d="M46.5,37H45.8V36.3h0.6a0.5,0.5,0,0,0,0-1H45.8V33.6a0.5,0.5,0,0,0-1,0v1.7h-2L41,33.2a0.5,0.5,0,0,0-.7.1v1.9H39.7a0.5,0.5,0,0,0,0,1h0.5V37H39.7a0.5,0.5,0,1,0,0,1h0.5v1a0.5,0.5,0,0,0,1,0V38h2.6L45,39.2l0.4,0.2h0.2a0.5,0.5,0,0,0,.3-0.5v-1h0.6a0.5,0.5,0,0,0,.2-0.7Zm-1.6-.7V37H44.3l-0.6-.7h1.2Zm-3.6-1.4,0.4,0.4H41.2V34.9h0.1Zm0,2.1V36.3h1.2L43,37H41.3Z" transform="translate(0 -23.1)"/><path d="M74.5,54.6l0.6,0.3,0.6-.3,5.7-5.7a0.9,0.9,0,1,0-1.3-1.3L76,51.8V33.6a0.9,0.9,0,0,0-1.8,0V51.8L70,47.6a0.9,0.9,0,1,0-1.3,1.3Z" transform="translate(0 -23.1)"/></svg>