<svg xmlns="http://www.w3.org/2000/svg" viewBox="0 0 88 55.2"><title>request</title><line x1="5" y1="48.6" x2="83" y2="48.6" fill="none" stroke="#45413c" stroke-linecap="round" stroke-linejoin="round"/><line x1="0.5" y1="48.6" x2="3" y2="48.6" fill="none" stroke="#45413c" stroke-linecap="round" stroke-linejoin="round"/><line x1="85" y1="48.6" x2="87.5" y2="48.6" fill="none" stroke="#45413c" stroke-linecap="round" stroke-linejoin="round"/><rect x="32.8" y="33.3" width="36.6" height="19.29" rx="2.8" ry="2.8" transform="translate(-11.1 59.2) rotate(-61.3)" fill="#fff" stroke="#45413c" stroke-linecap="round" stroke-linejoin="round" stroke-width="1.1"/><rect x="38.3" y="33.3" width="25.5" height="19.29" transform="translate(-11.2 59.2) rotate(-61.3)" fill="#e8e8e8"/><polygon points="37.8 39.1 65 28.1 48.8 19.3 37.8 39.1" fill="#d4d6d6"/><rect x="38.3" y="33.3" width="25.5" height="19.29" transform="translate(-11.2 59.2) rotate(-61.3)" fill="none" stroke="#45413c" stroke-linecap="round" stroke-linejoin="round" stroke-width="1.1"/><line x1="61" y1="22.8" x2="61.6" y2="23.2" fill="none" stroke="#45413c" stroke-linecap="round" stroke-linejoin="round" stroke-width="1.1"/><line x1="55.3" y1="19.8" x2="59.2" y2="21.9" fill="none" stroke="#45413c" stroke-linecap="round" stroke-linejoin="round" stroke-width="1.1"/><path d="M18.6,17a1.9,1.9,0,0,1,1.9-1.9H41.3A1.9,1.9,0,0,1,43.2,17h0V31.7a1.9,1.9,0,0,1-1.9,1.9H34.7v2.1a1.1,1.1,0,0,1-1.9.8L30,33.6H20.5a1.9,1.9,0,0,1-1.9-1.9V17Z" transform="translate(0 -7.9)" fill="#fff" stroke="#45413c" stroke-linejoin="round" stroke-width="1.1"/><circle cx="39.9" cy="7.2" r="6.6" fill="#a3c054"/><path d="M39.9,11.2a6.6,6.6,0,0,1,6.4,5.2,6.6,6.6,0,1,0-12.9,0A6.6,6.6,0,0,1,39.9,11.2Z" transform="translate(0 -7.9)" fill="#94a84a"/><circle cx="39.9" cy="7.2" r="6.6" fill="none" stroke="#45413c" stroke-linecap="round" stroke-linejoin="round" stroke-width="1.1"/><line x1="39.9" y1="3.2" x2="39.9" y2="6.6" fill="none" stroke="#fff" stroke-linecap="round" stroke-linejoin="round" stroke-width="2.19"/><path d="M39.9,17A1.1,1.1,0,1,0,41,18.1h0A1.1,1.1,0,0,0,39.9,17h0Z" transform="translate(0 -7.9)" fill="#fff"/><line x1="23" y1="13.7" x2="33.4" y2="13.7" fill="none" stroke="#45413c" stroke-linecap="round" stroke-linejoin="round" stroke-width="1.1"/><line x1="23" y1="16.9" x2="37.2" y2="16.9" fill="none" stroke="#45413c" stroke-linecap="round" stroke-linejoin="round" stroke-width="1.1"/><line x1="23" y1="20.3" x2="37.2" y2="20.3" fill="none" stroke="#45413c" stroke-linecap="round" stroke-linejoin="round" stroke-width="1.1"/><circle cx="43.6" cy="48.6" r="0.5" fill="#fff" stroke="#45413c" stroke-linejoin="round" stroke-width="1.1"/></svg>