<svg xmlns="http://www.w3.org/2000/svg" viewBox="0 0 512 392.3"><title>take-loan</title><path d="M486.9,110.6H25.2A17.1,17.1,0,0,1,8.1,93.5h0V25.1A17.1,17.1,0,0,1,25.2,8H486.9A17.1,17.1,0,0,1,504,25.1V93.5A17.1,17.1,0,0,1,486.9,110.6Z" fill="#7f8499"/><path d="M410,384.3H102.1A17.1,17.1,0,0,1,85,367.2V59.3H427V367.2A17.1,17.1,0,0,1,410,384.3Z" fill="#f1f4fb"/><circle cx="136.3" cy="333" r="17.1" fill="#9bf57d"/><circle cx="256" cy="230.4" r="25.7" fill="#8ce16e"/><circle cx="375.8" cy="333" r="17.1" fill="#9bf57d"/><path d="M427.1,59.3H85.1V85h34.2V271.8a10.2,10.2,0,0,0,10,10.2h1.1a50,50,0,0,1,5.9-.3,52.1,52.1,0,0,1,17.9,3.2,51.3,51.3,0,0,1,33.1,54,10.1,10.1,0,0,0,8.9,11.1H314.6a10.1,10.1,0,0,0,10.2-11.2,51.3,51.3,0,0,1,33.1-54,52.1,52.1,0,0,1,17.9-3.2,50.2,50.2,0,0,1,5.9.3h1.2a10.2,10.2,0,0,0,10-10.2V85h34.2V59.3h0Zm-78,201.5a77,77,0,0,0-45.5,45.5,78.9,78.9,0,0,0-4.3,18.1H212.8a79,79,0,0,0-4.3-18.1A77,77,0,0,0,163,260.8a79,79,0,0,0-18.1-4.3V98.2c24.8,28.2,65.3,46.7,111.2,46.7s86.4-18.4,111.2-46.7V256.5A79.1,79.1,0,0,0,349.1,260.8Z" fill="#d5dced"/><rect x="119.2" y="59.3" width="273.6" height="25.65" fill="#afb9d2"/><path d="M486.9,0H25.2A25.1,25.1,0,0,0,0,25H0V93.5a25.1,25.1,0,0,0,25.1,25.1H76.9V367.2A25.1,25.1,0,0,0,102,392.3H410a25.1,25.1,0,0,0,25.1-25.1V118.7h51.8A25.1,25.1,0,0,0,512,93.6V25.1A25.1,25.1,0,0,0,486.9,0Zm-77,376.3H102.1a9.1,9.1,0,0,1-9.1-9.1V67.3h18.2V271.8a18.3,18.3,0,0,0,6.1,13.7,18,18,0,0,0,14,4.4,43.4,43.4,0,0,1,20.1,2.5,42.9,42.9,0,0,1,25.4,25.4,43.4,43.4,0,0,1,2.5,20.1,18,18,0,0,0,4.4,14,18.3,18.3,0,0,0,13.7,6.1H314.6a18.3,18.3,0,0,0,13.7-6.1,18,18,0,0,0,4.4-14,43.4,43.4,0,0,1,2.5-20.1,42.9,42.9,0,0,1,25.4-25.4,43.4,43.4,0,0,1,20.1-2.5,18,18,0,0,0,14-4.4,18.3,18.3,0,0,0,6.1-13.7V67.3H419V367.2a9.1,9.1,0,0,1-9,9.1h-0.1Zm-93.1-36.5a1.9,1.9,0,0,1-.5,1.5,2.3,2.3,0,0,1-1.7.8H197.5a2.3,2.3,0,0,1-1.7-.8,1.9,1.9,0,0,1-.5-1.5A59.3,59.3,0,0,0,157,277.4a60.1,60.1,0,0,0-20.6-3.7,58.1,58.1,0,0,0-6.8.4,1.9,1.9,0,0,1-1.5-.5,2.3,2.3,0,0,1-.8-1.7V88a128.2,128.2,0,0,0,39,39.2c25.8,16.8,56.8,25.7,89.8,25.7s64-8.9,89.8-25.7a128.2,128.2,0,0,0,39-39.2V271.8a2.3,2.3,0,0,1-.8,1.7,1.9,1.9,0,0,1-1.5.5,59.3,59.3,0,0,0-65.8,65.8h0ZM337,113.7c-22.8,14.9-51.6,23.1-81,23.1s-58.2-8.2-81-23.1c-18.6-12.2-32.7-28.4-40.5-46.4H377.6c-7.8,18.1-21.9,34.3-40.5,46.4H337ZM495.9,93.5a9.1,9.1,0,0,1-9.1,9.1H435.1V67.3h17.6a8,8,0,0,0,0-16H59.4a8,8,0,0,0,0,16H77v35.3H25.2a9.1,9.1,0,0,1-9.1-9.1h0V25.1A9.1,9.1,0,0,1,25.2,16H486.9a9.1,9.1,0,0,1,9.1,9.1V93.5h-0.1Z"/><path d="M136.3,307.8a25.1,25.1,0,1,0,25.1,25.1,25.1,25.1,0,0,0-25.1-25.1h0Zm0,34.2a6.4,6.4,0,1,1,.1.1h-0.1Z"/><path d="M375.8,307.8a25.1,25.1,0,1,0,25.1,25.1,25.1,25.1,0,0,0-25.1-25.1h0Zm0,34.2a6.4,6.4,0,1,1,.1.1h-0.1Z"/><path d="M256,196.7a33.7,33.7,0,1,0,33.7,33.7A33.7,33.7,0,0,0,256,196.7h0Zm0,51.3a17.6,17.6,0,1,1,17.6-17.6A17.6,17.6,0,0,1,256,248Z"/></svg>